<svg width="20" height="20" viewBox="0 0 20 20" fill="none" xmlns="http://www.w3.org/2000/svg">
<g id="arrow-narrow-left">
<path id="Vector" fill-rule="evenodd" clip-rule="evenodd" d="M7.70679 14.7074C7.51926 14.8949 7.26495 15.0002 6.99979 15.0002C6.73462 15.0002 6.48031 14.8949 6.29279 14.7074L2.29279 10.7074C2.10532 10.5199 2 10.2656 2 10.0004C2 9.73524 2.10532 9.48094 2.29279 9.29341L6.29279 5.29341C6.48139 5.11125 6.73399 5.01045 6.99619 5.01273C7.25838 5.01501 7.5092 5.12018 7.6946 5.30559C7.88001 5.491 7.98518 5.74181 7.98746 6.00401C7.98974 6.2662 7.88894 6.5188 7.70679 6.70741L5.41379 9.00041H16.9998C17.265 9.00041 17.5194 9.10576 17.7069 9.2933C17.8944 9.48084 17.9998 9.73519 17.9998 10.0004C17.9998 10.2656 17.8944 10.52 17.7069 10.7075C17.5194 10.8951 17.265 11.0004 16.9998 11.0004H5.41379L7.70679 13.2934C7.89426 13.4809 7.99957 13.7352 7.99957 14.0004C7.99957 14.2656 7.89426 14.5199 7.70679 14.7074Z" fill="#161616"/>
</g>
</svg>
